<svg xmlns="http://www.w3.org/2000/svg" xmlns:xlink="http://www.w3.org/1999/xlink" width="500" zoomAndPan="magnify" viewBox="0 0 375 112.499997" height="150" preserveAspectRatio="xMidYMid meet" version="1.0"><defs><g/></defs><g fill="#222222" fill-opacity="1"><g transform="translate(8.446048, 80.874171)"><g><path d="M 74.1875 -42.53125 L 74.1875 -26.046875 C 72.226562 -17.023438 67.929688 -10.195312 61.296875 -5.5625 C 54.671875 -0.9375 47.28125 1.375 39.125 1.375 C 28.875 1.375 20.140625 -2.457031 12.921875 -10.125 C 5.710938 -17.789062 2.109375 -27.054688 2.109375 -37.921875 C 2.109375 -48.960938 5.632812 -58.285156 12.6875 -65.890625 C 19.75 -73.503906 28.5625 -77.3125 39.125 -77.3125 C 51.457031 -77.3125 61.210938 -72.988281 68.390625 -64.34375 L 57.0625 -51.921875 C 53.019531 -58.421875 47.375 -61.671875 40.125 -61.671875 C 34.789062 -61.671875 30.234375 -59.351562 26.453125 -54.71875 C 22.679688 -50.082031 20.796875 -44.484375 20.796875 -37.921875 C 20.796875 -31.484375 22.679688 -25.976562 26.453125 -21.40625 C 30.234375 -16.832031 34.789062 -14.546875 40.125 -14.546875 C 44.550781 -14.546875 48.40625 -15.878906 51.6875 -18.546875 C 54.96875 -21.210938 56.609375 -24.753906 56.609375 -29.171875 L 39.125 -29.171875 L 39.125 -42.53125 Z M 74.1875 -42.53125 "/></g></g></g><g fill="#222222" fill-opacity="1"><g transform="translate(76.082104, 80.874171)"><g><path d="M 5.515625 0 L 5.515625 -47.21875 L 21.8125 -47.21875 L 21.8125 -40.40625 L 22 -40.40625 C 22.125 -40.65625 22.320312 -40.960938 22.59375 -41.328125 C 22.875 -41.691406 23.472656 -42.332031 24.390625 -43.25 C 25.304688 -44.175781 26.285156 -45.007812 27.328125 -45.75 C 28.378906 -46.488281 29.734375 -47.144531 31.390625 -47.71875 C 33.046875 -48.300781 34.734375 -48.59375 36.453125 -48.59375 C 38.234375 -48.59375 39.984375 -48.347656 41.703125 -47.859375 C 43.421875 -47.367188 44.675781 -46.878906 45.46875 -46.390625 L 46.765625 -45.65625 L 39.953125 -31.84375 C 37.921875 -33.5625 35.097656 -34.421875 31.484375 -34.421875 C 29.515625 -34.421875 27.820312 -33.988281 26.40625 -33.125 C 25 -32.269531 24.003906 -31.226562 23.421875 -30 C 22.835938 -28.78125 22.421875 -27.738281 22.171875 -26.875 C 21.929688 -26.019531 21.8125 -25.347656 21.8125 -24.859375 L 21.8125 0 Z M 5.515625 0 "/></g></g></g><g fill="#222222" fill-opacity="1"><g transform="translate(113.257799, 80.874171)"><g><path d="M 8.734375 -5.84375 C 4.316406 -10.664062 2.109375 -16.570312 2.109375 -23.5625 C 2.109375 -30.5625 4.316406 -36.484375 8.734375 -41.328125 C 13.160156 -46.171875 18.78125 -48.59375 25.59375 -48.59375 C 31.851562 -48.59375 37.003906 -46.628906 41.046875 -42.703125 L 41.046875 -47.21875 L 57.34375 -47.21875 L 57.34375 0 L 41.234375 0 L 41.234375 -5.34375 L 41.046875 -5.34375 C 37.003906 -0.863281 31.851562 1.375 25.59375 1.375 C 18.78125 1.375 13.160156 -1.03125 8.734375 -5.84375 Z M 22.59375 -31.5625 C 20.476562 -29.476562 19.421875 -26.8125 19.421875 -23.5625 C 19.421875 -20.3125 20.429688 -17.65625 22.453125 -15.59375 C 24.484375 -13.539062 27.15625 -12.515625 30.46875 -12.515625 C 33.65625 -12.515625 36.273438 -13.554688 38.328125 -15.640625 C 40.390625 -17.734375 41.421875 -20.375 41.421875 -23.5625 C 41.421875 -26.8125 40.359375 -29.476562 38.234375 -31.5625 C 36.117188 -33.65625 33.53125 -34.703125 30.46875 -34.703125 C 27.332031 -34.703125 24.707031 -33.65625 22.59375 -31.5625 Z M 22.59375 -31.5625 "/></g></g></g><g fill="#222222" fill-opacity="1"><g transform="translate(167.458173, 80.874171)"><g><path d="M 8.734375 -5.84375 C 4.316406 -10.664062 2.109375 -16.570312 2.109375 -23.5625 C 2.109375 -30.5625 4.316406 -36.484375 8.734375 -41.328125 C 13.160156 -46.171875 18.78125 -48.59375 25.59375 -48.59375 C 31.851562 -48.59375 37.003906 -46.628906 41.046875 -42.703125 L 41.046875 -79.15625 L 57.34375 -79.15625 L 57.34375 0 L 41.234375 0 L 41.234375 -5.34375 L 41.046875 -5.34375 C 37.003906 -0.863281 31.851562 1.375 25.59375 1.375 C 18.78125 1.375 13.160156 -1.03125 8.734375 -5.84375 Z M 22.59375 -31.5625 C 20.476562 -29.476562 19.421875 -26.8125 19.421875 -23.5625 C 19.421875 -20.3125 20.429688 -17.65625 22.453125 -15.59375 C 24.484375 -13.539062 27.15625 -12.515625 30.46875 -12.515625 C 33.65625 -12.515625 36.273438 -13.554688 38.328125 -15.640625 C 40.390625 -17.734375 41.421875 -20.375 41.421875 -23.5625 C 41.421875 -26.8125 40.359375 -29.476562 38.234375 -31.5625 C 36.117188 -33.65625 33.53125 -34.703125 30.46875 -34.703125 C 27.332031 -34.703125 24.707031 -33.65625 22.59375 -31.5625 Z M 22.59375 -31.5625 "/></g></g></g><g fill="#222222" fill-opacity="1"><g transform="translate(221.658548, 80.874171)"><g><path d="M 53.296875 -21.359375 L 19.046875 -21.359375 C 19.046875 -18.046875 20.117188 -15.585938 22.265625 -13.984375 C 24.421875 -12.390625 26.753906 -11.59375 29.265625 -11.59375 C 31.910156 -11.59375 34 -11.945312 35.53125 -12.65625 C 37.0625 -13.363281 38.8125 -14.757812 40.78125 -16.84375 L 52.5625 -10.953125 C 47.644531 -2.734375 39.484375 1.375 28.078125 1.375 C 20.953125 1.375 14.84375 -1.0625 9.75 -5.9375 C 4.65625 -10.8125 2.109375 -16.6875 2.109375 -23.5625 C 2.109375 -30.4375 4.65625 -36.328125 9.75 -41.234375 C 14.84375 -46.140625 20.953125 -48.59375 28.078125 -48.59375 C 35.554688 -48.59375 41.644531 -46.429688 46.34375 -42.109375 C 51.039062 -37.785156 53.390625 -31.601562 53.390625 -23.5625 C 53.390625 -22.457031 53.359375 -21.722656 53.296875 -21.359375 Z M 19.515625 -30.375 L 37.46875 -30.375 C 37.09375 -32.832031 36.125 -34.71875 34.5625 -36.03125 C 33 -37.351562 30.988281 -38.015625 28.53125 -38.015625 C 25.832031 -38.015625 23.6875 -37.304688 22.09375 -35.890625 C 20.5 -34.484375 19.640625 -32.644531 19.515625 -30.375 Z M 19.515625 -30.375 "/></g></g></g><g fill="#222222" fill-opacity="1"><g transform="translate(268.496883, 80.874171)"><g><path d="M 22.828125 -75.9375 L 22.828125 0 L 5.515625 0 L 5.515625 -75.9375 Z M 22.828125 -75.9375 "/></g></g></g><g fill="#222222" fill-opacity="1"><g transform="translate(288.187788, 80.874171)"><g><path d="M 0.734375 -60.75 L 0.734375 -75.9375 L 54.125 -75.9375 L 54.125 -60.75 L 36.078125 -60.75 L 36.078125 0 L 18.78125 0 L 18.78125 -60.75 Z M 0.734375 -60.75 "/></g></g></g><g fill="#222222" fill-opacity="1"><g transform="translate(334.381947, 80.874171)"><g><path d="M 16.015625 -19.703125 C 18.960938 -19.703125 21.460938 -18.671875 23.515625 -16.609375 C 25.578125 -14.554688 26.609375 -12.054688 26.609375 -9.109375 C 26.609375 -6.222656 25.578125 -3.753906 23.515625 -1.703125 C 21.460938 0.347656 18.960938 1.375 16.015625 1.375 C 13.128906 1.375 10.65625 0.347656 8.59375 -1.703125 C 6.539062 -3.753906 5.515625 -6.222656 5.515625 -9.109375 C 5.515625 -12.054688 6.539062 -14.554688 8.59375 -16.609375 C 10.65625 -18.671875 13.128906 -19.703125 16.015625 -19.703125 Z M 16.015625 -19.703125 "/></g></g></g><g fill="#222222" fill-opacity="1"><g transform="translate(79.763201, 104.487839)"><g><path d="M 7.953125 -3.875 C 7.953125 -3.125 7.789062 -2.445312 7.46875 -1.84375 C 7.144531 -1.238281 6.695312 -0.757812 6.125 -0.40625 C 5.5625 -0.0625 4.925781 0.109375 4.21875 0.109375 C 3.5 0.109375 2.851562 -0.0625 2.28125 -0.40625 C 1.71875 -0.757812 1.273438 -1.238281 0.953125 -1.84375 C 0.628906 -2.445312 0.46875 -3.125 0.46875 -3.875 C 0.46875 -4.613281 0.628906 -5.285156 0.953125 -5.890625 C 1.273438 -6.492188 1.71875 -6.972656 2.28125 -7.328125 C 2.851562 -7.679688 3.5 -7.859375 4.21875 -7.859375 C 4.925781 -7.859375 5.5625 -7.679688 6.125 -7.328125 C 6.695312 -6.972656 7.144531 -6.492188 7.46875 -5.890625 C 7.789062 -5.285156 7.953125 -4.613281 7.953125 -3.875 Z M 6.8125 -3.875 C 6.8125 -4.425781 6.703125 -4.925781 6.484375 -5.375 C 6.265625 -5.820312 5.957031 -6.171875 5.5625 -6.421875 C 5.164062 -6.671875 4.71875 -6.796875 4.21875 -6.796875 C 3.71875 -6.796875 3.269531 -6.671875 2.875 -6.421875 C 2.476562 -6.171875 2.164062 -5.820312 1.9375 -5.375 C 1.71875 -4.9375 1.609375 -4.4375 1.609375 -3.875 C 1.609375 -3.320312 1.71875 -2.820312 1.9375 -2.375 C 2.164062 -1.925781 2.476562 -1.570312 2.875 -1.3125 C 3.269531 -1.0625 3.71875 -0.9375 4.21875 -0.9375 C 4.71875 -0.9375 5.164062 -1.0625 5.5625 -1.3125 C 5.957031 -1.570312 6.265625 -1.925781 6.484375 -2.375 C 6.703125 -2.820312 6.8125 -3.320312 6.8125 -3.875 Z M 6.8125 -3.875 "/></g></g></g><g fill="#222222" fill-opacity="1"><g transform="translate(95.398667, 104.487839)"><g><path d="M 7.640625 -7.75 C 7.785156 -7.75 7.910156 -7.695312 8.015625 -7.59375 C 8.117188 -7.488281 8.171875 -7.363281 8.171875 -7.21875 L 8.171875 -0.53125 C 8.171875 -0.382812 8.117188 -0.257812 8.015625 -0.15625 C 7.921875 -0.0507812 7.796875 0 7.640625 0 C 7.472656 0 7.335938 -0.046875 7.234375 -0.140625 C 7.128906 -0.242188 7.078125 -0.375 7.078125 -0.53125 L 7.078125 -5.65625 L 4.9375 -2.40625 C 4.882812 -2.332031 4.816406 -2.273438 4.734375 -2.234375 C 4.660156 -2.191406 4.582031 -2.171875 4.5 -2.171875 C 4.425781 -2.171875 4.347656 -2.191406 4.265625 -2.234375 C 4.191406 -2.273438 4.128906 -2.332031 4.078125 -2.40625 L 1.921875 -5.75 L 1.921875 -0.53125 C 1.921875 -0.375 1.875 -0.242188 1.78125 -0.140625 C 1.6875 -0.046875 1.566406 0 1.421875 0 C 1.265625 0 1.140625 -0.046875 1.046875 -0.140625 C 0.960938 -0.242188 0.921875 -0.375 0.921875 -0.53125 L 0.921875 -7.21875 C 0.921875 -7.363281 0.972656 -7.488281 1.078125 -7.59375 C 1.179688 -7.695312 1.304688 -7.75 1.453125 -7.75 C 1.546875 -7.75 1.632812 -7.726562 1.71875 -7.6875 C 1.800781 -7.644531 1.867188 -7.585938 1.921875 -7.515625 L 4.546875 -3.546875 L 7.203125 -7.515625 C 7.316406 -7.671875 7.460938 -7.75 7.640625 -7.75 Z M 7.640625 -7.75 "/></g></g></g><g fill="#222222" fill-opacity="1"><g transform="translate(111.697603, 104.487839)"><g><path d="M 6.8125 -0.890625 C 6.882812 -0.835938 6.941406 -0.769531 6.984375 -0.6875 C 7.035156 -0.613281 7.0625 -0.535156 7.0625 -0.453125 C 7.0625 -0.296875 7.007812 -0.179688 6.90625 -0.109375 C 6.8125 -0.0351562 6.691406 0 6.546875 0 C 6.410156 0 6.289062 -0.03125 6.1875 -0.09375 C 5.96875 -0.21875 5.785156 -0.421875 5.640625 -0.703125 C 5.503906 -0.984375 5.4375 -1.394531 5.4375 -1.9375 C 5.4375 -2.300781 5.328125 -2.570312 5.109375 -2.75 C 4.890625 -2.925781 4.601562 -3.015625 4.25 -3.015625 L 2.015625 -3.015625 L 2.015625 -0.53125 C 2.015625 -0.375 1.96875 -0.242188 1.875 -0.140625 C 1.789062 -0.046875 1.675781 0 1.53125 0 C 1.363281 0 1.21875 -0.0507812 1.09375 -0.15625 C 0.976562 -0.257812 0.921875 -0.382812 0.921875 -0.53125 L 0.921875 -7.21875 C 0.921875 -7.363281 0.972656 -7.488281 1.078125 -7.59375 C 1.179688 -7.695312 1.304688 -7.75 1.453125 -7.75 L 4.5625 -7.75 C 4.957031 -7.75 5.320312 -7.648438 5.65625 -7.453125 C 5.988281 -7.253906 6.253906 -6.984375 6.453125 -6.640625 C 6.648438 -6.296875 6.75 -5.910156 6.75 -5.484375 C 6.75 -5.078125 6.632812 -4.691406 6.40625 -4.328125 C 6.1875 -3.972656 5.90625 -3.707031 5.5625 -3.53125 C 5.832031 -3.382812 6.046875 -3.1875 6.203125 -2.9375 C 6.367188 -2.6875 6.457031 -2.394531 6.46875 -2.0625 C 6.5 -1.644531 6.53125 -1.359375 6.5625 -1.203125 C 6.601562 -1.054688 6.6875 -0.953125 6.8125 -0.890625 Z M 4.53125 -3.9375 C 4.71875 -3.945312 4.894531 -4.019531 5.0625 -4.15625 C 5.226562 -4.289062 5.363281 -4.46875 5.46875 -4.6875 C 5.570312 -4.914062 5.625 -5.171875 5.625 -5.453125 C 5.625 -5.804688 5.515625 -6.101562 5.296875 -6.34375 C 5.078125 -6.59375 4.8125 -6.71875 4.5 -6.71875 L 2.015625 -6.71875 L 2.015625 -3.9375 Z M 4.53125 -3.9375 "/></g></g></g><g fill="#222222" fill-opacity="1"><g transform="translate(126.426748, 104.487839)"><g/></g></g><g fill="#222222" fill-opacity="1"><g transform="translate(136.699255, 104.487839)"><g/></g></g><g fill="#222222" fill-opacity="1"><g transform="translate(146.972531, 104.487839)"><g><path d="M 5.9375 -7.75 C 6.09375 -7.75 6.21875 -7.703125 6.3125 -7.609375 C 6.414062 -7.515625 6.46875 -7.390625 6.46875 -7.234375 C 6.46875 -7.078125 6.414062 -6.953125 6.3125 -6.859375 C 6.21875 -6.773438 6.09375 -6.734375 5.9375 -6.734375 L 3.96875 -6.734375 L 3.96875 -0.53125 C 3.96875 -0.382812 3.914062 -0.257812 3.8125 -0.15625 C 3.707031 -0.0507812 3.570312 0 3.40625 0 C 3.238281 0 3.101562 -0.0507812 3 -0.15625 C 2.894531 -0.257812 2.84375 -0.382812 2.84375 -0.53125 L 2.84375 -6.734375 L 0.890625 -6.734375 C 0.734375 -6.734375 0.601562 -6.78125 0.5 -6.875 C 0.40625 -6.96875 0.359375 -7.09375 0.359375 -7.25 C 0.359375 -7.394531 0.40625 -7.515625 0.5 -7.609375 C 0.601562 -7.703125 0.734375 -7.75 0.890625 -7.75 Z M 5.9375 -7.75 "/></g></g></g><g fill="#222222" fill-opacity="1"><g transform="translate(161.004643, 104.487839)"><g><path d="M 5.875 -3.125 C 5.863281 -2.988281 5.804688 -2.875 5.703125 -2.78125 C 5.597656 -2.6875 5.476562 -2.640625 5.34375 -2.640625 L 1.453125 -2.640625 C 1.503906 -2.109375 1.707031 -1.675781 2.0625 -1.34375 C 2.414062 -1.019531 2.851562 -0.859375 3.375 -0.859375 C 3.726562 -0.859375 4.015625 -0.910156 4.234375 -1.015625 C 4.453125 -1.117188 4.648438 -1.253906 4.828125 -1.421875 C 4.929688 -1.484375 5.035156 -1.515625 5.140625 -1.515625 C 5.265625 -1.515625 5.367188 -1.46875 5.453125 -1.375 C 5.546875 -1.289062 5.59375 -1.191406 5.59375 -1.078125 C 5.59375 -0.921875 5.515625 -0.78125 5.359375 -0.65625 C 5.148438 -0.4375 4.867188 -0.253906 4.515625 -0.109375 C 4.160156 0.0351562 3.796875 0.109375 3.421875 0.109375 C 2.828125 0.109375 2.300781 -0.015625 1.84375 -0.265625 C 1.394531 -0.515625 1.046875 -0.863281 0.796875 -1.3125 C 0.554688 -1.757812 0.4375 -2.269531 0.4375 -2.84375 C 0.4375 -3.457031 0.5625 -4 0.8125 -4.46875 C 1.0625 -4.9375 1.394531 -5.296875 1.8125 -5.546875 C 2.226562 -5.796875 2.675781 -5.921875 3.15625 -5.921875 C 3.632812 -5.921875 4.078125 -5.800781 4.484375 -5.5625 C 4.898438 -5.320312 5.234375 -4.988281 5.484375 -4.5625 C 5.734375 -4.132812 5.863281 -3.65625 5.875 -3.125 Z M 3.15625 -4.953125 C 2.75 -4.953125 2.394531 -4.835938 2.09375 -4.609375 C 1.789062 -4.378906 1.59375 -4.019531 1.5 -3.53125 L 4.75 -3.53125 L 4.75 -3.625 C 4.71875 -4.007812 4.546875 -4.328125 4.234375 -4.578125 C 3.921875 -4.828125 3.5625 -4.953125 3.15625 -4.953125 Z M 3.15625 -4.953125 "/></g></g></g><g fill="#222222" fill-opacity="1"><g transform="translate(174.51704, 104.487839)"><g><path d="M 3.3125 -5.921875 C 3.894531 -5.921875 4.378906 -5.828125 4.765625 -5.640625 C 5.148438 -5.460938 5.34375 -5.226562 5.34375 -4.9375 C 5.34375 -4.8125 5.300781 -4.695312 5.21875 -4.59375 C 5.132812 -4.5 5.03125 -4.453125 4.90625 -4.453125 C 4.8125 -4.453125 4.738281 -4.46875 4.6875 -4.5 C 4.632812 -4.53125 4.554688 -4.578125 4.453125 -4.640625 C 4.410156 -4.691406 4.34375 -4.742188 4.25 -4.796875 C 4.15625 -4.847656 4.023438 -4.882812 3.859375 -4.90625 C 3.703125 -4.9375 3.554688 -4.953125 3.421875 -4.953125 C 3.046875 -4.953125 2.707031 -4.863281 2.40625 -4.6875 C 2.113281 -4.507812 1.882812 -4.265625 1.71875 -3.953125 C 1.5625 -3.640625 1.484375 -3.289062 1.484375 -2.90625 C 1.484375 -2.519531 1.5625 -2.171875 1.71875 -1.859375 C 1.875 -1.546875 2.097656 -1.300781 2.390625 -1.125 C 2.679688 -0.945312 3.007812 -0.859375 3.375 -0.859375 C 3.757812 -0.859375 4.066406 -0.921875 4.296875 -1.046875 C 4.347656 -1.066406 4.421875 -1.113281 4.515625 -1.1875 C 4.585938 -1.238281 4.648438 -1.28125 4.703125 -1.3125 C 4.765625 -1.34375 4.832031 -1.359375 4.90625 -1.359375 C 5.0625 -1.359375 5.179688 -1.3125 5.265625 -1.21875 C 5.347656 -1.125 5.390625 -1.003906 5.390625 -0.859375 C 5.390625 -0.703125 5.289062 -0.546875 5.09375 -0.390625 C 4.894531 -0.242188 4.628906 -0.125 4.296875 -0.03125 C 3.972656 0.0625 3.625 0.109375 3.25 0.109375 C 2.6875 0.109375 2.191406 -0.0195312 1.765625 -0.28125 C 1.335938 -0.539062 1.007812 -0.898438 0.78125 -1.359375 C 0.550781 -1.828125 0.4375 -2.34375 0.4375 -2.90625 C 0.4375 -3.476562 0.554688 -3.992188 0.796875 -4.453125 C 1.035156 -4.910156 1.375 -5.269531 1.8125 -5.53125 C 2.25 -5.789062 2.75 -5.921875 3.3125 -5.921875 Z M 3.3125 -5.921875 "/></g></g></g><g fill="#222222" fill-opacity="1"><g transform="translate(187.410216, 104.487839)"><g><path d="M 3.671875 -5.890625 C 4.972656 -5.890625 5.625 -5.085938 5.625 -3.484375 L 5.625 -0.53125 C 5.625 -0.382812 5.570312 -0.257812 5.46875 -0.15625 C 5.375 -0.0507812 5.25 0 5.09375 0 C 4.945312 0 4.820312 -0.0507812 4.71875 -0.15625 C 4.613281 -0.257812 4.5625 -0.382812 4.5625 -0.53125 L 4.5625 -3.484375 C 4.5625 -4.441406 4.160156 -4.921875 3.359375 -4.921875 C 2.921875 -4.921875 2.554688 -4.78125 2.265625 -4.5 C 1.984375 -4.226562 1.84375 -3.890625 1.84375 -3.484375 L 1.84375 -0.53125 C 1.84375 -0.382812 1.789062 -0.257812 1.6875 -0.15625 C 1.582031 -0.0507812 1.457031 0 1.3125 0 C 1.15625 0 1.023438 -0.046875 0.921875 -0.140625 C 0.828125 -0.242188 0.78125 -0.375 0.78125 -0.53125 L 0.78125 -7.65625 C 0.78125 -7.800781 0.828125 -7.925781 0.921875 -8.03125 C 1.023438 -8.132812 1.15625 -8.1875 1.3125 -8.1875 C 1.457031 -8.1875 1.582031 -8.132812 1.6875 -8.03125 C 1.789062 -7.925781 1.84375 -7.800781 1.84375 -7.65625 L 1.84375 -4.859375 C 2.019531 -5.140625 2.273438 -5.378906 2.609375 -5.578125 C 2.941406 -5.785156 3.296875 -5.890625 3.671875 -5.890625 Z M 3.671875 -5.890625 "/></g></g></g><g fill="#222222" fill-opacity="1"><g transform="translate(201.02213, 104.487839)"><g><path d="M 3.734375 -5.921875 C 5.066406 -5.921875 5.734375 -5.128906 5.734375 -3.546875 L 5.734375 -0.53125 C 5.734375 -0.382812 5.679688 -0.257812 5.578125 -0.15625 C 5.484375 -0.0507812 5.359375 0 5.203125 0 C 5.054688 0 4.929688 -0.0507812 4.828125 -0.15625 C 4.722656 -0.257812 4.671875 -0.382812 4.671875 -0.53125 L 4.671875 -3.53125 C 4.671875 -3.96875 4.570312 -4.3125 4.375 -4.5625 C 4.175781 -4.820312 3.851562 -4.953125 3.40625 -4.953125 C 3.113281 -4.953125 2.847656 -4.882812 2.609375 -4.75 C 2.367188 -4.625 2.179688 -4.453125 2.046875 -4.234375 C 1.910156 -4.023438 1.84375 -3.789062 1.84375 -3.53125 L 1.84375 -0.53125 C 1.84375 -0.382812 1.789062 -0.257812 1.6875 -0.15625 C 1.582031 -0.0507812 1.457031 0 1.3125 0 C 1.15625 0 1.023438 -0.046875 0.921875 -0.140625 C 0.828125 -0.242188 0.78125 -0.375 0.78125 -0.53125 L 0.78125 -5.265625 C 0.78125 -5.410156 0.828125 -5.535156 0.921875 -5.640625 C 1.023438 -5.742188 1.15625 -5.796875 1.3125 -5.796875 C 1.457031 -5.796875 1.582031 -5.742188 1.6875 -5.640625 C 1.789062 -5.535156 1.84375 -5.410156 1.84375 -5.265625 L 1.84375 -4.875 C 2.03125 -5.175781 2.296875 -5.425781 2.640625 -5.625 C 2.984375 -5.820312 3.347656 -5.921875 3.734375 -5.921875 Z M 3.734375 -5.921875 "/></g></g></g><g fill="#222222" fill-opacity="1"><g transform="translate(214.74463, 104.487839)"><g><path d="M 6.265625 -2.890625 C 6.265625 -2.316406 6.132812 -1.800781 5.875 -1.34375 C 5.625 -0.882812 5.273438 -0.523438 4.828125 -0.265625 C 4.378906 -0.015625 3.890625 0.109375 3.359375 0.109375 C 2.816406 0.109375 2.320312 -0.015625 1.875 -0.265625 C 1.425781 -0.523438 1.070312 -0.882812 0.8125 -1.34375 C 0.5625 -1.800781 0.4375 -2.316406 0.4375 -2.890625 C 0.4375 -3.472656 0.5625 -3.992188 0.8125 -4.453125 C 1.070312 -4.921875 1.425781 -5.28125 1.875 -5.53125 C 2.320312 -5.789062 2.816406 -5.921875 3.359375 -5.921875 C 3.890625 -5.921875 4.378906 -5.789062 4.828125 -5.53125 C 5.273438 -5.28125 5.625 -4.921875 5.875 -4.453125 C 6.132812 -3.992188 6.265625 -3.472656 6.265625 -2.890625 Z M 5.21875 -2.890625 C 5.21875 -3.296875 5.132812 -3.65625 4.96875 -3.96875 C 4.800781 -4.28125 4.578125 -4.519531 4.296875 -4.6875 C 4.015625 -4.863281 3.703125 -4.953125 3.359375 -4.953125 C 3.003906 -4.953125 2.6875 -4.863281 2.40625 -4.6875 C 2.125 -4.519531 1.898438 -4.28125 1.734375 -3.96875 C 1.566406 -3.65625 1.484375 -3.296875 1.484375 -2.890625 C 1.484375 -2.503906 1.566406 -2.15625 1.734375 -1.84375 C 1.898438 -1.53125 2.125 -1.285156 2.40625 -1.109375 C 2.6875 -0.941406 3.003906 -0.859375 3.359375 -0.859375 C 3.703125 -0.859375 4.015625 -0.941406 4.296875 -1.109375 C 4.578125 -1.285156 4.800781 -1.53125 4.96875 -1.84375 C 5.132812 -2.15625 5.21875 -2.503906 5.21875 -2.890625 Z M 5.21875 -2.890625 "/></g></g></g><g fill="#222222" fill-opacity="1"><g transform="translate(228.655104, 104.487839)"><g><path d="M 1.921875 -0.53125 C 1.921875 -0.382812 1.867188 -0.257812 1.765625 -0.15625 C 1.660156 -0.0507812 1.535156 0 1.390625 0 C 1.242188 0 1.117188 -0.0507812 1.015625 -0.15625 C 0.921875 -0.257812 0.875 -0.382812 0.875 -0.53125 L 0.875 -7.65625 C 0.875 -7.800781 0.925781 -7.925781 1.03125 -8.03125 C 1.132812 -8.132812 1.257812 -8.1875 1.40625 -8.1875 C 1.550781 -8.1875 1.671875 -8.132812 1.765625 -8.03125 C 1.867188 -7.925781 1.921875 -7.800781 1.921875 -7.65625 Z M 1.921875 -0.53125 "/></g></g></g><g fill="#222222" fill-opacity="1"><g transform="translate(238.662232, 104.487839)"><g><path d="M 6.265625 -2.890625 C 6.265625 -2.316406 6.132812 -1.800781 5.875 -1.34375 C 5.625 -0.882812 5.273438 -0.523438 4.828125 -0.265625 C 4.378906 -0.015625 3.890625 0.109375 3.359375 0.109375 C 2.816406 0.109375 2.320312 -0.015625 1.875 -0.265625 C 1.425781 -0.523438 1.070312 -0.882812 0.8125 -1.34375 C 0.5625 -1.800781 0.4375 -2.316406 0.4375 -2.890625 C 0.4375 -3.472656 0.5625 -3.992188 0.8125 -4.453125 C 1.070312 -4.921875 1.425781 -5.28125 1.875 -5.53125 C 2.320312 -5.789062 2.816406 -5.921875 3.359375 -5.921875 C 3.890625 -5.921875 4.378906 -5.789062 4.828125 -5.53125 C 5.273438 -5.28125 5.625 -4.921875 5.875 -4.453125 C 6.132812 -3.992188 6.265625 -3.472656 6.265625 -2.890625 Z M 5.21875 -2.890625 C 5.21875 -3.296875 5.132812 -3.65625 4.96875 -3.96875 C 4.800781 -4.28125 4.578125 -4.519531 4.296875 -4.6875 C 4.015625 -4.863281 3.703125 -4.953125 3.359375 -4.953125 C 3.003906 -4.953125 2.6875 -4.863281 2.40625 -4.6875 C 2.125 -4.519531 1.898438 -4.28125 1.734375 -3.96875 C 1.566406 -3.65625 1.484375 -3.296875 1.484375 -2.890625 C 1.484375 -2.503906 1.566406 -2.15625 1.734375 -1.84375 C 1.898438 -1.53125 2.125 -1.285156 2.40625 -1.109375 C 2.6875 -0.941406 3.003906 -0.859375 3.359375 -0.859375 C 3.703125 -0.859375 4.015625 -0.941406 4.296875 -1.109375 C 4.578125 -1.285156 4.800781 -1.53125 4.96875 -1.84375 C 5.132812 -2.15625 5.21875 -2.503906 5.21875 -2.890625 Z M 5.21875 -2.890625 "/></g></g></g><g fill="#222222" fill-opacity="1"><g transform="translate(252.572705, 104.487839)"><g><path d="M 5.625 -5.875 C 5.78125 -5.875 5.90625 -5.820312 6 -5.71875 C 6.101562 -5.625 6.15625 -5.492188 6.15625 -5.328125 L 6.15625 -0.46875 C 6.15625 0.132812 6.03125 0.632812 5.78125 1.03125 C 5.53125 1.4375 5.1875 1.734375 4.75 1.921875 C 4.3125 2.117188 3.820312 2.21875 3.28125 2.21875 C 2.976562 2.21875 2.628906 2.164062 2.234375 2.0625 C 1.835938 1.957031 1.585938 1.847656 1.484375 1.734375 C 1.253906 1.617188 1.140625 1.472656 1.140625 1.296875 C 1.140625 1.253906 1.15625 1.195312 1.1875 1.125 C 1.269531 0.9375 1.40625 0.84375 1.59375 0.84375 C 1.6875 0.84375 1.789062 0.863281 1.90625 0.90625 C 2.488281 1.132812 2.945312 1.25 3.28125 1.25 C 3.875 1.25 4.328125 1.101562 4.640625 0.8125 C 4.953125 0.53125 5.109375 0.144531 5.109375 -0.34375 L 5.109375 -0.9375 C 4.953125 -0.65625 4.691406 -0.410156 4.328125 -0.203125 C 3.960938 0.00390625 3.578125 0.109375 3.171875 0.109375 C 2.660156 0.109375 2.195312 -0.015625 1.78125 -0.265625 C 1.363281 -0.523438 1.035156 -0.882812 0.796875 -1.34375 C 0.554688 -1.8125 0.4375 -2.332031 0.4375 -2.90625 C 0.4375 -3.476562 0.554688 -3.992188 0.796875 -4.453125 C 1.035156 -4.921875 1.363281 -5.28125 1.78125 -5.53125 C 2.195312 -5.789062 2.65625 -5.921875 3.15625 -5.921875 C 3.5625 -5.921875 3.9375 -5.828125 4.28125 -5.640625 C 4.632812 -5.460938 4.910156 -5.242188 5.109375 -4.984375 L 5.109375 -5.328125 C 5.109375 -5.484375 5.15625 -5.613281 5.25 -5.71875 C 5.351562 -5.820312 5.476562 -5.875 5.625 -5.875 Z M 3.296875 -0.859375 C 3.660156 -0.859375 3.976562 -0.941406 4.25 -1.109375 C 4.53125 -1.285156 4.75 -1.53125 4.90625 -1.84375 C 5.070312 -2.164062 5.15625 -2.519531 5.15625 -2.90625 C 5.15625 -3.300781 5.070312 -3.648438 4.90625 -3.953125 C 4.75 -4.265625 4.53125 -4.507812 4.25 -4.6875 C 3.976562 -4.863281 3.660156 -4.953125 3.296875 -4.953125 C 2.941406 -4.953125 2.625 -4.863281 2.34375 -4.6875 C 2.0625 -4.507812 1.84375 -4.265625 1.6875 -3.953125 C 1.53125 -3.640625 1.453125 -3.289062 1.453125 -2.90625 C 1.453125 -2.519531 1.53125 -2.171875 1.6875 -1.859375 C 1.84375 -1.546875 2.0625 -1.300781 2.34375 -1.125 C 2.625 -0.945312 2.941406 -0.859375 3.296875 -0.859375 Z M 3.296875 -0.859375 "/></g></g></g><g fill="#222222" fill-opacity="1"><g transform="translate(266.715387, 104.487839)"><g><path d="M 1.78125 -0.53125 C 1.78125 -0.382812 1.726562 -0.257812 1.625 -0.15625 C 1.53125 -0.0507812 1.40625 0 1.25 0 C 1.101562 0 0.976562 -0.0507812 0.875 -0.15625 C 0.78125 -0.257812 0.734375 -0.382812 0.734375 -0.53125 L 0.734375 -5.328125 C 0.734375 -5.472656 0.78125 -5.597656 0.875 -5.703125 C 0.976562 -5.804688 1.101562 -5.859375 1.25 -5.859375 C 1.40625 -5.859375 1.53125 -5.804688 1.625 -5.703125 C 1.726562 -5.597656 1.78125 -5.472656 1.78125 -5.328125 Z M 1.25 -6.578125 C 1.039062 -6.578125 0.890625 -6.613281 0.796875 -6.6875 C 0.703125 -6.769531 0.65625 -6.894531 0.65625 -7.0625 L 0.65625 -7.25 C 0.65625 -7.425781 0.703125 -7.550781 0.796875 -7.625 C 0.898438 -7.695312 1.054688 -7.734375 1.265625 -7.734375 C 1.472656 -7.734375 1.625 -7.691406 1.71875 -7.609375 C 1.8125 -7.535156 1.859375 -7.414062 1.859375 -7.25 L 1.859375 -7.0625 C 1.859375 -6.882812 1.804688 -6.757812 1.703125 -6.6875 C 1.609375 -6.613281 1.457031 -6.578125 1.25 -6.578125 Z M 1.25 -6.578125 "/></g></g></g><g fill="#222222" fill-opacity="1"><g transform="translate(276.435014, 104.487839)"><g><path d="M 5.875 -3.125 C 5.863281 -2.988281 5.804688 -2.875 5.703125 -2.78125 C 5.597656 -2.6875 5.476562 -2.640625 5.34375 -2.640625 L 1.453125 -2.640625 C 1.503906 -2.109375 1.707031 -1.675781 2.0625 -1.34375 C 2.414062 -1.019531 2.851562 -0.859375 3.375 -0.859375 C 3.726562 -0.859375 4.015625 -0.910156 4.234375 -1.015625 C 4.453125 -1.117188 4.648438 -1.253906 4.828125 -1.421875 C 4.929688 -1.484375 5.035156 -1.515625 5.140625 -1.515625 C 5.265625 -1.515625 5.367188 -1.46875 5.453125 -1.375 C 5.546875 -1.289062 5.59375 -1.191406 5.59375 -1.078125 C 5.59375 -0.921875 5.515625 -0.78125 5.359375 -0.65625 C 5.148438 -0.4375 4.867188 -0.253906 4.515625 -0.109375 C 4.160156 0.0351562 3.796875 0.109375 3.421875 0.109375 C 2.828125 0.109375 2.300781 -0.015625 1.84375 -0.265625 C 1.394531 -0.515625 1.046875 -0.863281 0.796875 -1.3125 C 0.554688 -1.757812 0.4375 -2.269531 0.4375 -2.84375 C 0.4375 -3.457031 0.5625 -4 0.8125 -4.46875 C 1.0625 -4.9375 1.394531 -5.296875 1.8125 -5.546875 C 2.226562 -5.796875 2.675781 -5.921875 3.15625 -5.921875 C 3.632812 -5.921875 4.078125 -5.800781 4.484375 -5.5625 C 4.898438 -5.320312 5.234375 -4.988281 5.484375 -4.5625 C 5.734375 -4.132812 5.863281 -3.65625 5.875 -3.125 Z M 3.15625 -4.953125 C 2.75 -4.953125 2.394531 -4.835938 2.09375 -4.609375 C 1.789062 -4.378906 1.59375 -4.019531 1.5 -3.53125 L 4.75 -3.53125 L 4.75 -3.625 C 4.71875 -4.007812 4.546875 -4.328125 4.234375 -4.578125 C 3.921875 -4.828125 3.5625 -4.953125 3.15625 -4.953125 Z M 3.15625 -4.953125 "/></g></g></g><g fill="#222222" fill-opacity="1"><g transform="translate(289.947416, 104.487839)"><g><path d="M 0.453125 -0.90625 C 0.390625 -1.007812 0.359375 -1.109375 0.359375 -1.203125 C 0.359375 -1.347656 0.4375 -1.472656 0.59375 -1.578125 C 0.664062 -1.628906 0.75 -1.65625 0.84375 -1.65625 C 0.976562 -1.65625 1.097656 -1.601562 1.203125 -1.5 C 1.421875 -1.25 1.65625 -1.054688 1.90625 -0.921875 C 2.164062 -0.796875 2.472656 -0.734375 2.828125 -0.734375 C 3.109375 -0.742188 3.351562 -0.8125 3.5625 -0.9375 C 3.78125 -1.0625 3.890625 -1.257812 3.890625 -1.53125 C 3.890625 -1.78125 3.78125 -1.96875 3.5625 -2.09375 C 3.34375 -2.226562 3.023438 -2.351562 2.609375 -2.46875 C 2.191406 -2.582031 1.847656 -2.695312 1.578125 -2.8125 C 1.304688 -2.9375 1.078125 -3.113281 0.890625 -3.34375 C 0.703125 -3.570312 0.609375 -3.878906 0.609375 -4.265625 C 0.609375 -4.585938 0.703125 -4.875 0.890625 -5.125 C 1.078125 -5.382812 1.328125 -5.582031 1.640625 -5.71875 C 1.953125 -5.851562 2.296875 -5.921875 2.671875 -5.921875 C 3.023438 -5.921875 3.375 -5.851562 3.71875 -5.71875 C 4.070312 -5.59375 4.359375 -5.394531 4.578125 -5.125 C 4.671875 -5.019531 4.71875 -4.910156 4.71875 -4.796875 C 4.71875 -4.679688 4.65625 -4.566406 4.53125 -4.453125 C 4.457031 -4.390625 4.367188 -4.359375 4.265625 -4.359375 C 4.128906 -4.359375 4.019531 -4.398438 3.9375 -4.484375 C 3.78125 -4.660156 3.585938 -4.796875 3.359375 -4.890625 C 3.140625 -4.992188 2.894531 -5.046875 2.625 -5.046875 C 2.34375 -5.046875 2.101562 -4.988281 1.90625 -4.875 C 1.707031 -4.757812 1.609375 -4.566406 1.609375 -4.296875 C 1.617188 -4.035156 1.734375 -3.84375 1.953125 -3.71875 C 2.171875 -3.59375 2.503906 -3.472656 2.953125 -3.359375 C 3.347656 -3.253906 3.671875 -3.140625 3.921875 -3.015625 C 4.179688 -2.898438 4.398438 -2.722656 4.578125 -2.484375 C 4.753906 -2.253906 4.84375 -1.953125 4.84375 -1.578125 C 4.84375 -1.234375 4.742188 -0.929688 4.546875 -0.671875 C 4.347656 -0.421875 4.085938 -0.226562 3.765625 -0.09375 C 3.441406 0.0390625 3.101562 0.109375 2.75 0.109375 C 2.28125 0.109375 1.847656 0.03125 1.453125 -0.125 C 1.054688 -0.289062 0.722656 -0.550781 0.453125 -0.90625 Z M 0.453125 -0.90625 "/></g></g></g></svg>
